<svg id="Layer_1" enable-background="new 0 0 256 256" height="512" viewBox="0 0 256 256" width="512" xmlns="http://www.w3.org/2000/svg"><path d="m207.679 35.839h-159.358c-24.478 0-44.321 19.844-44.321 44.322 0 24.478 19.843 44.321 44.321 44.321h159.358c24.478 0 44.321-19.843 44.321-44.321 0-24.478-19.843-44.322-44.321-44.322z" fill="#ff4397"/><path d="m207.679 35.839h-10c24.478 0 44.321 19.843 44.321 44.321 0 24.478-19.843 44.321-44.321 44.321h10c24.478 0 44.321-19.843 44.321-44.321 0-24.477-19.843-44.321-44.321-44.321z" fill="#e12579"/><path d="m48.321 124.482h10c-24.478 0-44.321-19.843-44.321-44.321 0-24.478 19.843-44.321 44.321-44.321h-10c-24.478-.001-44.321 19.843-44.321 44.321 0 24.478 19.843 44.321 44.321 44.321z" fill="#ff61b5"/><path d="m206.5 108.661h-157c-15.74 0-28.5-12.76-28.5-28.5 0-15.74 12.76-28.5 28.5-28.5h157c15.74 0 28.5 12.76 28.5 28.5 0 15.74-12.76 28.5-28.5 28.5z" fill="#fcc24c"/><g fill="#690589"><path d="m207.679 126.481h-159.358c-25.541 0-46.321-20.779-46.321-46.32 0-25.542 20.78-46.321 46.321-46.321h159.357c25.542 0 46.322 20.779 46.322 46.32 0 25.542-20.78 46.321-46.321 46.321zm-159.358-88.641c-23.336 0-42.321 18.984-42.321 42.32s18.985 42.321 42.321 42.321h159.357c23.336 0 42.321-18.984 42.321-42.32s-18.984-42.321-42.32-42.321z"/><path d="m12.702 83.244c-1.104 0-2-.896-2-2 0-4.257.58-8.477 1.725-12.542.3-1.062 1.405-1.685 2.467-1.383 1.063.299 1.683 1.403 1.383 2.467-1.045 3.712-1.575 7.567-1.575 11.458 0 1.105-.895 2-2 2z"/><path d="m206.5 110.66h-157c-16.818 0-30.5-13.682-30.5-30.499 0-16.818 13.682-30.501 30.5-30.501h157c16.818 0 30.5 13.683 30.5 30.5s-13.682 30.5-30.5 30.5zm-157-57c-14.612 0-26.5 11.888-26.5 26.5s11.888 26.5 26.5 26.5h157c14.612 0 26.5-11.888 26.5-26.499 0-14.612-11.888-26.501-26.5-26.501z"/><path d="m59.082 88.092h-11.438l-2.306 6.119c-.424 1.036-1.412 1.647-2.447 1.647-.33 0-.613-.047-.895-.141-1.365-.518-2.023-2.024-1.553-3.389l10.401-27.724c.424-1.035 1.459-1.694 2.495-1.647 1.082-.047 2.071.612 2.494 1.647l10.402 27.724c.471 1.364-.188 2.87-1.553 3.389-.235.094-.565.141-.895.141-1.035 0-2.023-.612-2.401-1.647zm-1.93-5.177-3.813-10.119-3.813 10.119z"/><path d="m69.34 78.915c.047-9.32 7.86-16.897 17.274-16.944 4.142 0 7.907 1.364 10.873 3.671 1.13.941 1.318 2.589.471 3.766-.941 1.177-2.683 1.364-3.766.517-2.07-1.694-4.66-2.588-7.577-2.588-3.248 0-6.26 1.317-8.472 3.389-2.118 2.165-3.436 4.989-3.436 8.19 0 3.2 1.319 6.119 3.436 8.189 2.212 2.071 5.224 3.39 8.472 3.39 2.918 0 5.46-.895 7.577-2.589 1.083-.8 2.825-.612 3.766.518.847 1.176.659 2.871-.471 3.765-2.966 2.307-6.731 3.672-10.873 3.672-9.414-.002-17.228-7.58-17.274-16.946z"/><path d="m127.229 68.136h-7.484v25.134c0 1.458-1.129 2.588-2.588 2.588-1.412 0-2.588-1.13-2.588-2.588v-25.134h-7.438c-1.458 0-2.588-1.224-2.588-2.636 0-1.46 1.13-2.588 2.588-2.588h20.098c1.412 0 2.588 1.129 2.588 2.588.001 1.412-1.176 2.636-2.588 2.636z"/><path d="m137.91 65.5c0-1.46 1.13-2.588 2.589-2.588 1.412 0 2.635 1.129 2.635 2.588v27.77c0 1.458-1.223 2.588-2.635 2.588-1.46 0-2.589-1.13-2.589-2.588z"/><path d="m177.916 67.006c2.918 3.107 4.754 7.249 4.754 11.908s-1.836 8.848-4.754 11.908c-2.777 3.059-6.919 5.036-11.249 5.036-4.518 0-8.661-1.977-11.532-5.036-2.918-3.06-4.66-7.249-4.66-11.908 0-4.66 1.742-8.802 4.66-11.908 2.871-3.107 7.014-5.036 11.532-5.036 4.33 0 8.472 1.93 11.249 5.036zm-.612 11.909c0-3.201-1.271-6.166-3.2-8.237-1.977-2.119-4.613-3.342-7.437-3.342-3.012 0-5.648 1.223-7.625 3.342-1.977 2.071-3.201 5.036-3.201 8.237 0 3.2 1.224 6.166 3.201 8.189 1.977 2.119 4.613 3.39 7.625 3.39 2.824 0 5.46-1.271 7.437-3.39 1.929-2.024 3.2-4.989 3.2-8.189z"/><path d="m195.893 93.27c0 1.412-1.177 2.588-2.542 2.588-1.458 0-2.588-1.177-2.588-2.588v-27.346s0 0 0-.048c-.048-.8.33-1.647 1.035-2.164 1.177-.8 2.777-.565 3.577.564l15.203 21.04v-19.392c0-1.365 1.13-2.542 2.542-2.542s2.588 1.176 2.588 2.542v27.346c0 1.412-1.176 2.588-2.588 2.588-.754 0-1.46-.376-1.93-.941-.094-.094-.188-.189-.235-.283l-15.062-20.898z"/></g><path d="m190.048 130.113c-.901-2.13-2.708-3.784-4.939-4.478-.743-.231-1.534-.356-2.354-.356-.819 0-1.61.125-2.353.356-2.23.694-4.038 2.347-4.939 4.478-.401.947-.622 1.988-.622 3.08v-6.412c0-4.371-3.543-7.914-7.914-7.914s-7.914 3.543-7.914 7.914v-3.688c0-4.371-3.543-7.914-7.914-7.914s-7.914 3.543-7.914 7.914v-25.308c0-.273-.014-.543-.041-.809-.243-2.395-1.554-4.474-3.448-5.754-1.263-.853-2.786-1.352-4.425-1.352s-3.162.498-4.425 1.352c-1.895 1.28-3.205 3.359-3.448 5.754-.027.266-.041.536-.041.809v40.249 10.366c0-4.38-3.55-7.931-7.93-7.931-3.378 0-6.255 2.116-7.398 5.091-.339.883-.533 1.837-.533 2.84v28.057c0 6.022 3.356 11.261 8.301 13.947.225.122.453.239.684.35.924.446 1.899.804 2.912 1.065 1.267.326 2.595.499 3.964.499v1.058c0 3.287 1.499 6.224 3.851 8.165.261.216.533.419.815.609 1.689 1.141 3.725 1.807 5.916 1.807v16.203h43.682v-16.3h.001c1.918-.248 3.655-1.012 5.084-2.152.022-.018.045-.033.067-.051.192-.156.375-.321.555-.49.056-.053.115-.104.17-.158.156-.153.305-.314.451-.476.071-.079.143-.158.212-.239.129-.152.251-.309.371-.469.077-.102.153-.205.226-.31.105-.152.207-.306.304-.463.076-.123.15-.248.221-.374.085-.151.168-.303.246-.458.072-.143.138-.288.203-.435.066-.149.132-.297.192-.45.064-.162.119-.328.175-.495.049-.145.1-.29.142-.438.053-.185.096-.373.14-.562.032-.137.068-.272.094-.411.042-.219.07-.442.098-.665.015-.116.036-.229.047-.345.032-.343.051-.689.051-1.041v-59.617-.565c-.001-1.096-.222-2.137-.623-3.083z" fill="#ff9f70"/><path d="m142.122 203.718c-4.773-1.023-8.354-5.263-8.354-10.342 0-.573-.442-1.054-1.015-1.09-8.287-.523-14.847-7.41-14.847-15.829v-28.057c0-3.238 1.943-6.018 4.725-7.25-1.264-.56-2.698-.807-4.209-.618-4.006.502-6.928 4.062-6.928 8.099v27.825c0 8.76 7.101 15.861 15.861 15.861v1.058c0 5.844 4.738 10.581 10.581 10.581v16.203h6.412v-15.218c0-.56-.423-1.031-.979-1.09z" fill="#ffbd8e"/><path d="m187.496 201.009c.156-.153.305-.314.451-.476.071-.079.143-.158.212-.239.129-.152.251-.309.371-.469.077-.102.153-.205.226-.31.105-.152.207-.306.304-.463.076-.123.15-.248.221-.374.085-.151.168-.303.246-.458.072-.143.138-.288.203-.435.066-.149.132-.297.192-.45.064-.162.119-.328.175-.495.049-.145.1-.29.142-.438.053-.185.096-.373.14-.562.032-.137.068-.272.094-.411.042-.219.07-.442.098-.665.015-.116.036-.229.047-.345.032-.343.051-.689.051-1.041v-59.617-.565c0-1.093-.221-2.133-.622-3.08-.901-2.13-2.708-3.784-4.939-4.478-.743-.231-1.534-.356-2.354-.356-.819 0-1.61.125-2.353.356-.524.163-1.021.383-1.492.646 2.424 1.353 4.066 3.94 4.066 6.913v.565 59.617c0 5.275-3.722 9.636-8.744 10.437-.941.082-1.663.869-1.663 1.813v14.534h9.051v-16.3c1.919-.248 3.655-1.012 5.084-2.152.022-.018.045-.033.067-.051.192-.156.375-.321.555-.49.057-.056.115-.107.171-.161z" fill="#e18152"/><path d="m127.356 172.803c-1.104 0-2-.896-2-2v-22.403c0-1.104.896-2 2-2s2 .896 2 2v22.403c0 1.104-.895 2-2 2z" fill="#690589"/><path d="m159.013 146.445c-1.104 0-2-.896-2-2v-21.353c0-3.261-2.653-5.914-5.914-5.914s-5.914 2.653-5.914 5.914v21.353c0 1.104-.896 2-2 2s-2-.896-2-2v-21.353c0-5.467 4.447-9.914 9.914-9.914s9.914 4.447 9.914 9.914v21.353c0 1.105-.895 2-2 2z" fill="#690589"/><path d="m174.842 146.445c-1.104 0-2-.896-2-2v-17.664c0-3.261-2.653-5.914-5.914-5.914s-5.915 2.653-5.915 5.914v17.664c0 1.104-.896 2-2 2s-2-.896-2-2v-17.664c0-5.467 4.448-9.914 9.915-9.914s9.914 4.447 9.914 9.914v17.664c0 1.105-.896 2-2 2z" fill="#690589"/><path d="m181.62 222.16h-43.682c-1.104 0-2-.896-2-2v-14.362c-5.722-.917-10.167-5.707-10.554-11.588-8.924-.984-15.888-8.571-15.888-17.753v-28.058c0-5.476 4.455-9.93 9.931-9.93 2.221 0 4.274.733 5.93 1.97v-42.654c0-5.467 4.448-9.915 9.915-9.915s9.914 4.448 9.914 9.915v46.66c0 1.104-.896 2-2 2s-2-.896-2-2v-46.66c0-3.262-2.653-5.915-5.914-5.915s-5.915 2.653-5.915 5.915v50.614c0 1.104-.896 2-2 2s-2-.896-2-2c0-3.27-2.66-5.93-5.93-5.93s-5.931 2.66-5.931 5.93v28.058c0 7.644 6.218 13.861 13.861 13.861 1.104 0 2 .896 2 2v1.058c0 4.731 3.85 8.581 8.582 8.581 1.104 0 2 .896 2 2v14.203h39.682v-14.3c0-1.006.747-1.854 1.744-1.983 4.234-.547 7.307-4.122 7.307-8.501v-60.183c0-3.261-2.653-5.914-5.915-5.914s-5.914 2.653-5.914 5.914v11.252c0 1.104-.896 2-2 2s-2-.896-2-2v-11.252c0-5.467 4.447-9.914 9.914-9.914s9.915 4.447 9.915 9.914v60.183c0 5.701-3.785 10.625-9.051 12.111v14.673c-.001 1.105-.897 2-2.001 2z" fill="#690589"/></svg>